<?xml version="1.0" encoding="UTF-8" standalone="no"?>
<!-- Created with Inkscape (http://www.inkscape.org/) -->

<svg
   width="12.699994mm"
   height="12.699984mm"
   viewBox="0 0 12.699994 12.699984"
   version="1.1"
   id="svg1"
   xml:space="preserve"
   xmlns:inkscape="http://www.inkscape.org/namespaces/inkscape"
   xmlns:sodipodi="http://sodipodi.sourceforge.net/DTD/sodipodi-0.dtd"
   xmlns="http://www.w3.org/2000/svg"
   xmlns:svg="http://www.w3.org/2000/svg"><sodipodi:namedview
     id="namedview1"
     pagecolor="#ffffff"
     bordercolor="#000000"
     borderopacity="0.25"
     inkscape:showpageshadow="2"
     inkscape:pageopacity="0.0"
     inkscape:pagecheckerboard="0"
     inkscape:deskcolor="#d1d1d1"
     inkscape:document-units="mm"><inkscape:page
       x="0"
       y="0"
       width="12.699994"
       height="12.699984"
       id="page2"
       margin="0"
       bleed="0" /></sodipodi:namedview><defs
     id="defs1" /><g
     inkscape:label="Layer 1"
     inkscape:groupmode="layer"
     id="layer1"
     transform="translate(44.152161,-94.313598)"><path
       style="fill:#620099;fill-opacity:1;stroke-width:0.414014"
       d="m -44.091282,106.95313 c -0.06068,-0.0607 -0.06088,-0.0626 -0.06088,-0.56907 0,-0.49203 0.0018,-0.51029 0.05609,-0.57342 0.04587,-0.0533 0.08429,-0.0678 0.210839,-0.0792 l 0.154749,-0.014 v -0.98648 -0.98646 l 0.07632,-0.0642 c 0.04197,-0.0353 0.09499,-0.0642 0.117822,-0.0642 0.07294,1e-5 1.144718,0.12414 1.517383,0.17573 1.683769,0.23309 3.087613,0.5918 3.854539,0.98487 0.3011,0.15432 0.422494,0.15596 0.704113,0.009 0.86104,-0.44792 2.5515,-0.84782 4.569468,-1.08095 0.914906,-0.10569 0.846994,-0.10371 0.937843,-0.0273 l 0.07915,0.0666 v 0.98646 0.98647 l 0.154748,0.0141 c 0.126547,0.0114 0.164971,0.0259 0.21084,0.0792 0.0543,0.0632 0.05609,0.0814 0.05609,0.57342 0,0.5065 -2.04e-4,0.5084 -0.06088,0.56908 l -0.06088,0.0608 h -2.73772 -2.73772 l -0.058,-0.0617 c -0.04045,-0.043 -0.06439,-0.10872 -0.07914,-0.21702 -0.02833,-0.20813 -0.121982,-0.3566 -0.287602,-0.45592 -0.22499,-0.13492 -0.431101,-0.13492 -0.656092,0 -0.16562,0.0993 -0.25927,0.24779 -0.287601,0.45592 -0.01475,0.1083 -0.03869,0.17396 -0.07914,0.21702 l -0.058,0.0617 h -2.737735 -2.737719 z m 1.625834,-0.57159 v -0.21081 h -0.63252 -0.632519 v 0.19427 c 0,0.10687 0.0074,0.20174 0.01654,0.21083 0.0091,0.009 0.293729,0.0165 0.632519,0.0165 h 0.615983 z m 3.654872,0.0762 c 0.04948,-0.15697 0.215802,-0.39338 0.346952,-0.49315 0.387881,-0.29513 0.935028,-0.29513 1.322909,0 0.131151,0.0998 0.29747,0.33618 0.346952,0.49315 l 0.04245,0.13465 h 1.58297 1.582969 v -0.21082 -0.21082 h -1.403094 c -0.837212,0 -1.420826,-0.01 -1.447058,-0.0235 -0.02418,-0.013 -0.0875,-0.098 -0.140702,-0.18894 -0.17043,-0.29141 -0.454955,-0.49809 -0.804261,-0.58427 -0.07504,-0.0185 -0.26479,-0.0337 -0.421679,-0.0337 -0.156889,0 -0.346645,0.0152 -0.42168,0.0337 -0.349305,0.0862 -0.63383,0.29286 -0.804261,0.58427 -0.05321,0.091 -0.116523,0.17599 -0.140702,0.18894 -0.02624,0.014 -0.609846,0.0235 -1.447057,0.0235 h -1.403096 v 0.21082 0.21082 h 1.582971 1.582969 z m 6.931525,-0.0824 0.0072,-0.20461 h -0.633522 -0.633523 v 0.21125 0.21124 l 0.626318,-0.006 0.626318,-0.006 z m -7.461009,-0.75385 c 0.08881,-0.14527 0.367693,-0.39561 0.547465,-0.49143 0.113739,-0.0606 0.144449,-0.0874 0.117574,-0.1024 -0.02001,-0.0112 -0.198575,-0.0756 -0.39682,-0.14321 -0.668346,-0.2278 -1.618653,-0.44459 -2.617477,-0.59715 -0.441542,-0.0674 -1.477744,-0.20002 -1.563285,-0.20002 -0.02402,0 -0.0314,0.0932 -0.0314,0.39685 v 0.39684 h 1.265038 1.265039 v 0.22323 0.22322 h -1.265041 -1.265038 v 0.19843 0.19842 l 1.940966,-8e-4 1.940965,-8e-4 z m 7.019723,-0.0956 v -0.19843 h -1.265038 -1.265039 v -0.22322 -0.22323 h 1.265039 1.265038 v -0.39808 -0.39807 l -0.155029,0.016 c -1.171467,0.12094 -2.446812,0.33601 -3.31005,0.55815 -0.388588,0.10001 -1.003933,0.29581 -1.118886,0.35604 -0.06192,0.0325 -0.06154,0.0329 0.09217,0.11483 0.180113,0.096 0.458979,0.34625 0.547858,0.49164 l 0.06201,0.10145 1.940965,8e-4 1.940966,8e-4 z m -3.373435,-0.42165 v -0.22323 h 0.223242 0.223242 v 0.22323 0.22322 h -0.223242 -0.223242 z m -3.174998,-1.6866 v -0.22322 h 0.223242 0.223241 v 0.22322 0.22322 h -0.223241 -0.223242 z m 2.25431,-0.0692 c -0.532433,-0.27814 -0.425613,-1.06352 0.162573,-1.19534 0.455115,-0.10199 0.880399,0.34806 0.750323,0.79402 -0.114357,0.39206 -0.557604,0.5869 -0.912896,0.40132 z m 0.447599,-0.44254 c 0.07203,-0.0916 0.06454,-0.17337 -0.024,-0.2619 -0.06311,-0.0631 -0.08839,-0.0729 -0.15503,-0.06 -0.102642,0.0198 -0.166437,0.098 -0.166437,0.204 0,0.11554 0.07268,0.18327 0.196637,0.18327 0.07569,0 0.10888,-0.0145 0.148828,-0.0653 z m -4.49519,0.27479 c -0.07749,-0.0431 -0.11656,-0.12401 -0.116922,-0.24206 -8e-4,-0.26989 -0.305159,-0.56238 -0.585546,-0.56274 -0.187077,-2.5e-4 -0.314937,-0.1939 -0.221832,-0.33599 0.0486,-0.0742 0.108772,-0.10196 0.2647,-0.12229 0.06292,-0.008 0.174143,-0.0507 0.247156,-0.0945 0.169524,-0.10165 0.262725,-0.24824 0.291295,-0.45812 0.02648,-0.19456 0.09516,-0.27875 0.227358,-0.27875 0.05634,0 0.110489,0.0189 0.144204,0.0503 0.05432,0.0506 0.06593,0.0837 0.08842,0.25226 0.03631,0.27213 0.271914,0.49735 0.555197,0.53076 0.152035,0.0179 0.217451,0.0505 0.251587,0.12548 0.07858,0.17246 -0.01137,0.29824 -0.235787,0.32975 -0.340124,0.0477 -0.530487,0.23693 -0.576432,0.57287 -0.01279,0.0935 -0.03865,0.16889 -0.06801,0.19825 -0.06617,0.0661 -0.181796,0.0813 -0.265388,0.0348 z m 0.212592,-0.9478 0.09129,-0.0935 -0.09499,-0.0922 -0.09499,-0.0922 -0.100431,0.0955 -0.100432,0.0955 0.09015,0.0901 c 0.04958,0.0496 0.09644,0.0901 0.104129,0.0901 0.0077,0 0.05506,-0.0421 0.105276,-0.0935 z m -2.437669,0.11732 v -0.22419 l 0.217041,0.007 0.217041,0.007 0.0072,0.21703 0.0072,0.21702 h -0.224208 -0.224208 z m 4.72164,0.16079 c -0.06145,-0.0615 -0.06288,-0.07 -0.04628,-0.27985 0.03899,-0.49259 -0.215554,-1.08105 -0.763474,-1.76499 -0.08196,-0.10231 -0.407684,-0.44273 -0.723822,-0.756491 -0.576224,-0.57187 -0.741199,-0.77002 -0.929298,-1.11613 -0.600573,-1.10506 -0.385138,-2.47171 0.594287,-3.76991 0.09268,-0.12284 0.228574,-0.28754 0.301986,-0.36597 0.113122,-0.12087 0.146672,-0.14262 0.220023,-0.14262 0.0476,0 0.11206,0.0179 0.143241,0.0397 0.101974,0.0714 0.108095,0.13762 0.03791,0.41005 -0.05762,0.22365 -0.0632,0.28344 -0.05254,0.56369 0.01902,0.49982 0.171156,0.91893 0.532516,1.46685 0.303453,0.46012 0.570233,0.76591 1.309125,1.50057 0.779575,0.77511 0.913354,0.94062 1.053054,1.30286 0.03987,0.10336 0.08585,0.26471 0.102197,0.35856 0.04073,0.233901 0.01655,0.625131 -0.05215,0.843691 -0.151226,0.48106 -0.513644,0.98759 -0.997761,1.39451 -0.464229,0.39019 -0.59689,0.4476 -0.729025,0.31548 z m 0.792025,-0.99016 c 0.278054,-0.32687 0.424928,-0.57705 0.515064,-0.87726 0.07478,-0.24908 0.06048,-0.60699 -0.03411,-0.853631 -0.124962,-0.32585 -0.251942,-0.48054 -1.031,-1.25592 -0.874953,-0.87083 -1.161709,-1.22147 -1.50018,-1.83445 -0.216091,-0.39133 -0.343937,-0.7669 -0.398023,-1.1692 l -0.02835,-0.21082 -0.130875,0.21658 c -0.237353,0.3928 -0.424937,0.86274 -0.502634,1.2592 -0.05064,0.25839 -0.03882,0.79401 0.02253,1.02127 0.155288,0.57518 0.351932,0.87042 1.004833,1.50862 0.796307,0.778391 1.173392,1.253171 1.44386,1.817901 0.128902,0.26915 0.234975,0.5882 0.234975,0.70675 0,0.0524 0.01399,0.0454 0.148966,-0.0733 0.08193,-0.0721 0.196652,-0.18717 0.254935,-0.25569 z m -0.428706,-1.27791 v -0.22322 h 0.210839 0.21084 v 0.22322 0.22323 h -0.21084 -0.210839 z m -0.639686,-0.638661 0.0072,-0.21704 h 0.21084 0.21084 l 0.0072,0.21704 0.0072,0.21702 h -0.225263 -0.225174 z m 2.963057,1.911871 c -0.0091,-0.009 -0.01654,-0.10954 -0.01654,-0.22322 v -0.20668 h 0.223243 0.223241 v 0.22321 0.22323 h -0.206703 c -0.113687,0 -0.214146,-0.007 -0.223241,-0.0165 z m 1.75587,-0.49079 c -0.03652,-0.0365 -0.06089,-0.0895 -0.06089,-0.13248 0,-0.11275 -0.06411,-0.2969 -0.136341,-0.39161 -0.100822,-0.13216 -0.231863,-0.20573 -0.435575,-0.24455 -0.130616,-0.0249 -0.196443,-0.0507 -0.227603,-0.0891 -0.04939,-0.061 -0.05719,-0.175791 -0.01704,-0.250801 0.03243,-0.0606 0.166876,-0.12029 0.270883,-0.12029 0.10925,0 0.304723,-0.10696 0.39505,-0.21617 0.08023,-0.097 0.150626,-0.28722 0.150626,-0.40701 0,-0.10713 0.09957,-0.20522 0.208301,-0.20522 0.13523,0 0.210568,0.0874 0.237096,0.27505 0.04672,0.33053 0.246858,0.51931 0.599229,0.56525 0.146324,0.0191 0.230333,0.10211 0.230333,0.227631 0,0.12327 -0.08806,0.19548 -0.265424,0.21763 -0.299909,0.0375 -0.515311,0.25135 -0.565184,0.56118 -0.0322,0.20002 -0.09179,0.27142 -0.226561,0.27142 -0.06887,0 -0.113234,-0.0172 -0.156906,-0.0609 z m 0.252588,-0.90022 0.09859,-0.093 -0.09878,-0.0998 -0.09878,-0.0998 -0.09344,0.0998 -0.09344,0.0998 0.09044,0.093 c 0.04975,0.0512 0.09188,0.093 0.09363,0.093 0.0018,0 0.04755,-0.0418 0.10178,-0.093 z m -7.506828,0.1178 v -0.22322 h 0.21084 0.21084 v 0.22322 0.22323 h -0.21084 -0.21084 z m -1.327231,-0.479961 c -0.231166,-0.10764 -0.366877,-0.31958 -0.367654,-0.57415 -0.0014,-0.43166 0.402567,-0.74083 0.812216,-0.62176 0.384311,0.11172 0.576044,0.55709 0.391717,0.9099 -0.159558,0.30541 -0.525698,0.43062 -0.836279,0.28601 z m 0.409458,-0.43774 c 0.07585,-0.0759 0.06763,-0.23025 -0.01575,-0.29584 -0.09157,-0.072 -0.173378,-0.0645 -0.261914,0.024 -0.06311,0.0631 -0.0729,0.0884 -0.06003,0.15502 0.0085,0.0438 0.03891,0.0991 0.06766,0.12301 0.07103,0.059 0.207996,0.0558 0.270029,-0.006 z m 5.475717,-0.58151 c -0.212465,-0.11082 -0.603052,-0.47546 -0.755836,-0.70563 -0.151896,-0.22883 -0.214522,-0.40966 -0.215635,-0.62269 -0.002,-0.383 0.145631,-0.65728 0.509921,-0.94731 0.610225,-0.48582 0.920402,-0.87204 1.026042,-1.27758 0.04757,-0.18264 0.04658,-0.28498 -0.0045,-0.4672 -0.05832,-0.20799 -0.05257,-0.28235 0.02711,-0.35089 0.107703,-0.0926 0.210468,-0.0771 0.365629,0.0553 0.176485,0.15064 0.419949,0.42861 0.572784,0.65398 0.409193,0.6034 0.473959,1.14804 0.198783,1.67166 -0.09937,0.18909 -0.244798,0.34153 -0.626758,0.65697 -0.444233,0.36686 -0.768945,0.81572 -0.768945,1.06293 0,0.1358 -0.04991,0.23752 -0.135732,0.27661 -0.08338,0.038 -0.10974,0.0371 -0.192845,-0.006 z m 0.156682,-0.97125 c 0.151793,-0.22493 0.425954,-0.51802 0.673982,-0.72052 0.32439,-0.26483 0.444131,-0.3893 0.521307,-0.54186 0.0956,-0.18897 0.115512,-0.40471 0.05841,-0.63287 -0.04787,-0.19125 -0.206778,-0.52343 -0.307756,-0.64332 l -0.07213,-0.0856 -0.0318,0.13525 c -0.107653,0.45793 -0.497043,0.97884 -1.07809,1.44224 -0.137135,0.10937 -0.280468,0.23931 -0.318519,0.28875 -0.09261,0.12034 -0.150955,0.32686 -0.130634,0.46237 0.02121,0.14139 0.158028,0.36464 0.331416,0.54074 l 0.14114,0.14333 0.042,-0.0989 c 0.0231,-0.0544 0.09991,-0.1847 0.170687,-0.28958 z m 0.777666,0.97376 c -0.007,-0.0183 -0.0095,-0.11599 -0.0054,-0.21701 l 0.0074,-0.18371 0.21704,-0.007 0.217041,-0.007 v 0.2242 0.22419 h -0.211618 c -0.154274,0 -0.215084,-0.009 -0.224407,-0.0333 z m 1.915378,-1.07219 c -0.234248,-0.0748 -0.437557,-0.35633 -0.437557,-0.60587 0,-0.21369 0.140895,-0.44556 0.342891,-0.5643 0.09906,-0.0582 0.143159,-0.0681 0.302032,-0.0676 0.210892,8e-4 0.329307,0.049 0.463683,0.18948 0.298555,0.31201 0.210693,0.81829 -0.176634,1.01781 -0.128421,0.0661 -0.341627,0.0793 -0.494415,0.0305 z m 0.340446,-0.45887 c 0.05041,-0.0396 0.06535,-0.0732 0.06535,-0.147 0,-0.17826 -0.209504,-0.26402 -0.335991,-0.13755 -0.179333,0.17932 0.07048,0.44199 0.270634,0.28455 z m -4.67968,-0.80667 c -0.07738,-0.042 -0.116558,-0.12272 -0.116922,-0.24106 -3.7e-4,-0.12076 -0.105295,-0.31973 -0.220662,-0.41848 -0.09927,-0.085 -0.199798,-0.12361 -0.408185,-0.15695 -0.173543,-0.0277 -0.260464,-0.17658 -0.185413,-0.31749 0.04437,-0.0833 0.09361,-0.10916 0.24081,-0.12646 0.31856,-0.0374 0.573693,-0.30392 0.573693,-0.5992 0,-0.12364 0.104029,-0.23382 0.220769,-0.23382 0.05847,0 0.112138,0.0185 0.146324,0.0503 0.05432,0.0506 0.06592,0.0837 0.08842,0.25227 0.03711,0.27808 0.269682,0.49578 0.566962,0.53073 0.144952,0.017 0.194262,0.0431 0.238511,0.12619 0.07505,0.14091 -0.01187,0.28974 -0.185414,0.31749 -0.370149,0.0592 -0.567578,0.22655 -0.616287,0.5224 -0.03681,0.22353 -0.04315,0.23857 -0.120589,0.28579 -0.09318,0.0568 -0.130007,0.0582 -0.222018,0.008 z m 0.209866,-0.94411 0.09299,-0.0908 -0.09795,-0.0979 -0.09795,-0.0979 -0.09766,0.0957 -0.09766,0.0957 0.09009,0.093 c 0.04955,0.0512 0.09573,0.093 0.102617,0.093 0.0069,0 0.05437,-0.0409 0.105516,-0.0908 z"
       id="path122"
       inkscape:export-filename="logo.svg"
       inkscape:export-xdpi="300"
       inkscape:export-ydpi="300" /></g></svg>
